<?xml version="1.0" encoding="UTF-8" standalone="no"?>
<svg width="586px" height="389px" viewBox="0 0 586 389" version="1.1" xmlns="http://www.w3.org/2000/svg" xmlns:xlink="http://www.w3.org/1999/xlink" xmlns:sketch="http://www.bohemiancoding.com/sketch/ns">
    <!-- Generator: Sketch 3.2 (9961) - http://www.bohemiancoding.com/sketch -->
    <title>hambun</title>
    <desc>Created with Sketch.</desc>
    <defs></defs>
    <g id="Page-1" stroke="none" stroke-width="1" fill="none" fill-rule="evenodd" sketch:type="MSPage">
        <g id="hambun" sketch:type="MSLayerGroup" transform="translate(5.000000, 5.000000)" stroke="#ECECEC">
            <path d="M288.633649,238.998123 C168.673125,238.755016 49,214.821308 49,179.050099 C49,-61.5030983 530,-58.2753323 530,180.316811 C530,215.625368 409.171738,239.2424 288.633649,238.998123 Z" id="Path-1" stroke-width="8.4" sketch:type="MSShapeGroup"></path>
            <path d="M292.922188,343.31856 C41.6684069,343.31856 50.0325926,402.661702 50.0325926,366.747605 C50.0325926,245.552074 172.275879,250.448036 292.922188,251.452411 C412.695494,252.449518 530.878162,248.681691 530.878162,368.019377 C530.878162,403.468973 544.175969,343.31856 292.922188,343.31856 Z" id="Path-2" stroke-width="8.4" sketch:type="MSShapeGroup" transform="translate(290.500000, 315.175487) rotate(180.000000) translate(-290.500000, -315.175487) "></path>
            <path d="M25.059299,168 C8.95612958,175.476155 0,183.764061 0,192.48726 C0,225.586097 128.941992,268 288,268 C447.058008,268 576,225.586097 576,192.48726 C576,184.368175 568.241405,176.626178 554.182876,169.564807" id="Oval-1" stroke-width="8.4" sketch:type="MSShapeGroup"></path>
            <ellipse id="Oval-1" stroke-width="4.2" sketch:type="MSShapeGroup" transform="translate(432.000000, 83.000000) rotate(-42.000000) translate(-432.000000, -83.000000) " cx="432" cy="83" rx="6" ry="12"></ellipse>
            <ellipse id="Oval-2" stroke-width="4.2" sketch:type="MSShapeGroup" transform="translate(432.000000, 120.000000) rotate(-42.000000) translate(-432.000000, -120.000000) " cx="432" cy="120" rx="6" ry="12"></ellipse>
            <ellipse id="Oval-3" stroke-width="4.2" sketch:type="MSShapeGroup" transform="translate(473.000000, 113.000000) rotate(-42.000000) translate(-473.000000, -113.000000) " cx="473" cy="113" rx="6" ry="12"></ellipse>
        </g>
    </g>
</svg>